My upload speed is slow so give it some time, be patient, and SEED!

G:Zone of the Enders Idolo (2001).mkv
   General
      Unique ID : 188026267848383686049457413566442379100 (0x8D748ABDC365AB9CB8F9432DD122175C)
      Complete name : G:Zone of the Enders Idolo (2001).mkv
      Format : Matroska
      Format version : Version 4 / Version 2
      File size : 1.52 GiB
      Duration : 51mn 36s
      Overall bit rate : 4 216 Kbps
      Encoded date : UTC 2010-02-22 21:41:31
      Writing application : mkvmerge v5.9.0 ('On The Loose') built on Dec  9 2012 15:37:01
      Writing library : libebml v1.3.0 + libmatroska v1.4.0
      Attachment : Yes / Yes / Yes / Yes / Yes / Yes
   Video #1
      ID : 1
      Format : AVC
      Format/Info : Advanced Video Codec
      Format profile : High 10@L5.0
      Format settings, CABAC : Yes
      Format settings, ReFrames : 16 frames
      Muxing mode : Header stripping
      Codec ID : V_MPEG4/ISO/AVC
      Duration : 51mn 36s
      Bit rate : 3 460 Kbps
      Width : 1 432 pixels
      Height : 1 080 pixels
      Display aspect ratio : 4:3
      Frame rate mode : Constant
      Frame rate : 23.976 fps
      Color space : YUV
      Chroma subsampling : 4:2:0
      Bit depth : 10 bits
      Scan type : Progressive
      Bits/(Pixel*Frame) : 0.093
      Stream size : 1.25 GiB (82%)
      Writing library : x264 core 120 r2164+656 2ff844c
      Encoding settings : cabac=1 / ref=16 / deblock=1:-1:-1 / analyse=0x3:0x133 / me=umh / subme=10 / psy=1 / fade_compensate=0.80 / psy_rd=0.60:0.10 / mixed_ref=1 / me_range=24 / chroma_me=1 / trellis=2 / 8x8dct=1 / cqm=0 / deadzone=21,11 / fast_pskip=1 / chroma_qp_offset=-3 / threads=18 / sliced_threads=0 / nr=0 / decimate=1 / interlaced=0 / bluray_compat=0 / constrained_intra=0 / fgo=0 / bframes=12 / b_pyramid=2 / b_adapt=2 / b_bias=0 / direct=3 / weightb=1 / open_gop=0 / weightp=2 / keyint=250 / keyint_min=23 / scenecut=40 / intra_refresh=0 / rc_lookahead=60 / rc=crf / mbtree=1 / crf=19.0 / qcomp=0.72 / qpmin=4 / qpmax=81 / qpstep=4 / ip_ratio=1.40 / aq=2:0.80
      Language : English
      Default : Yes
      Forced : No
   Audio #2
      ID : 2
      Format : AC-3
      Format/Info : Audio Coding 3
      Mode extension : CM (complete main)
      Format settings, Endianness : Big
      Muxing mode : Header stripping
      Codec ID : A_AC3
      Duration : 51mn 36s
      Bit rate mode : Constant
      Bit rate : 448 Kbps
      Channel(s) : 6 channels
      Channel positions : Front: L C R, Side: L R, LFE
      Sampling rate : 48.0 KHz
      Bit depth : 16 bits
      Compression mode : Lossy
      Stream size : 165 MiB (11%)
      Title : Dialog 5.1 (ac3 audio)
      Language : English
      Default : Yes
      Forced : No
   Audio #3
      ID : 3
      Format : AC-3
      Format/Info : Audio Coding 3
      Mode extension : CM (complete main)
      Format settings, Endianness : Big
      Muxing mode : Header stripping
      Codec ID : A_AC3
      Duration : 51mn 36s
      Bit rate mode : Constant
      Bit rate : 224 Kbps
      Channel(s) : 2 channels
      Channel positions : Front: L R
      Sampling rate : 48.0 KHz
      Bit depth : 16 bits
      Compression mode : Lossy
      Stream size : 82.7 MiB (5%)
      Title : Dialog 2.1 (ac3 audio)
      Language : Japanese
      Default : No
      Forced : No
   Text #4
      ID : 4
      Format : ASS
      Codec ID : S_TEXT/ASS
      Codec ID/Info : Advanced Sub Station Alpha
      Compression mode : Lossless
      Title : Dialog
      Language : English
      Default : Yes
      Forced : No